<svg id="visual" viewBox="0 0 900 300" width="900" height="300" xmlns="http://www.w3.org/2000/svg" xmlns:xlink="http://www.w3.org/1999/xlink" version="1.1"><path d="M0 82L75 84.5C150 87 300 92 450 102C600 112 750 127 825 134.5L900 142L900 0L825 0C750 0 600 0 450 0C300 0 150 0 75 0L0 0Z" fill="#253659"></path><path d="M0 220L75 221.5C150 223 300 226 450 229.5C600 233 750 237 825 239L900 241L900 140L825 132.5C750 125 600 110 450 100C300 90 150 85 75 82.5L0 80Z" fill="#007a99"></path><path d="M0 301L75 301C150 301 300 301 450 301C600 301 750 301 825 301L900 301L900 239L825 237C750 235 600 231 450 227.5C300 224 150 221 75 219.5L0 218Z" fill="#04bf9d"></path></svg>