<svg id="visual" viewBox="0 0 900 200" width="900" height="200" xmlns="http://www.w3.org/2000/svg" xmlns:xlink="http://www.w3.org/1999/xlink" version="1.1"><rect x="0" y="0" width="900" height="200" fill="#1e0853"></rect><path d="M0 62L30 66C60 70 120 78 180 77.7C240 77.3 300 68.7 360 56.2C420 43.7 480 27.3 540 30.7C600 34 660 57 720 68.3C780 79.7 840 79.3 870 79.2L900 79L900 0L870 0C840 0 780 0 720 0C660 0 600 0 540 0C480 0 420 0 360 0C300 0 240 0 180 0C120 0 60 0 30 0L0 0Z" fill="#bbc5cd" stroke-linecap="round" stroke-linejoin="miter"></path></svg>