<svg id="visual" viewBox="0 0 900 80" width="900" height="80" xmlns="http://www.w3.org/2000/svg" xmlns:xlink="http://www.w3.org/1999/xlink" version="1.1"><rect x="0" y="0" width="900" height="80" fill="#bbc5cd"></rect><path d="M0 38L21.5 43.2C43 48.3 86 58.7 128.8 61.5C171.7 64.3 214.3 59.7 257.2 50.8C300 42 343 29 385.8 21C428.7 13 471.3 10 514.2 10.7C557 11.3 600 15.7 642.8 26.8C685.7 38 728.3 56 771.2 64.3C814 72.7 857 71.3 878.5 70.7L900 70L900 81L878.5 81C857 81 814 81 771.2 81C728.3 81 685.7 81 642.8 81C600 81 557 81 514.2 81C471.3 81 428.7 81 385.8 81C343 81 300 81 257.2 81C214.3 81 171.7 81 128.8 81C86 81 43 81 21.5 81L0 81Z" fill="#d8d7d7" stroke-linecap="round" stroke-linejoin="miter"></path></svg>